# xmcd
#
# Track frame offsets:
# 150
# 12227
# 30831
# 40736
# 53998
# 66239
# 76769
# 87260
# 97696
# 108795
# 120426
# 135018
# 148650
# 163885
#
# Disc length: 2350 seconds
#
#
# Revision: 0
# Processed by: cddbd v1.5PL3 Copyright (c) Steve Scherf et al.
# Submitted via: FreeRIP 2.53 
#
DISCID=9c092c0e
DTITLE=Bush, Johnny - 14 Greatest Hits
DYEAR=1900
DGENRE=
TTITLE0=Undo The Right
TTITLE1=You Gave Me A Mountain
TTITLE2=Each Time
TTITLE3=City Lights
TTITLE4=Jim, Jack, And Rose
TTITLE5=You Ought To Hear Me Cry
TTITLE6=Lonely Street
TTITLE7=I'll Be There
TTITLE8=Warmth Of The Wine
TTITLE9=What A Way To Live
TTITLE10=My Joy
TTITLE11=You'll Never Leave Me Completely
TTITLE12=She Just Made Me Love You More
TTITLE13=Put Me Out Of My Memory
EXTD=
EXTT0=
EXTT1=
EXTT2=
EXTT3=
EXTT4=
EXTT5=
EXTT6=
EXTT7=
EXTT8=
EXTT9=
EXTT10=
EXTT11=
EXTT12=
EXTT13=
PLAYORDER=
